<svg viewBox="0 0 512 512" xmlns="http://www.w3.org/2000/svg">
  <path d="M 38 36 L 10 77 L 0 117 L 0 394 L 10 434 L 36 473 L 77 501 L 117 511 L 394 511 L 434 501 L 473 475 L 501 434 L 511 394 L 511 117 L 501 77 L 475 38 L 434 10 L 394 0 L 117 0 L 77 10 Z" fill="#1460c5" />
  
  <path d="M 402 303 L 393 300 L 384 303 L 380 307 L 377 316 L 377 333 L 375 339 L 366 350 L 355 355 L 333 356 L 325 362 L 322 371 L 325 380 L 329 384 L 338 387 L 364 385 L 377 380 L 392 369 L 402 355 L 408 338 L 409 316 L 406 307 Z" fill="#FFFFFF" />
  <path d="M 109 303 L 105 307 L 102 316 L 103 337 L 109 355 L 120 370 L 134 380 L 151 386 L 173 387 L 182 384 L 186 380 L 189 371 L 186 362 L 178 356 L 156 355 L 144 349 L 137 341 L 134 333 L 134 316 L 131 307 L 127 303 L 118 300 Z" fill="#FFFFFF" />
  <path d="M 327 190 L 318 193 L 314 197 L 311 206 L 311 305 L 314 314 L 318 318 L 327 321 L 336 318 L 340 314 L 343 305 L 343 206 L 340 197 L 336 193 Z" fill="#FFFFFF" />
  <path d="M 255 190 L 246 193 L 240 202 L 240 308 L 246 318 L 256 321 L 265 318 L 271 309 L 271 203 L 265 193 Z" fill="#FFFFFF" />
  <path d="M 184 190 L 175 193 L 171 197 L 168 206 L 168 305 L 171 314 L 175 318 L 184 321 L 193 318 L 197 314 L 200 305 L 200 206 L 197 197 L 193 193 Z" fill="#FFFFFF" />
  <path d="M 329 127 L 325 131 L 322 140 L 325 149 L 333 155 L 355 156 L 367 162 L 374 170 L 377 178 L 377 195 L 380 204 L 384 208 L 393 211 L 402 208 L 406 204 L 409 195 L 408 174 L 402 156 L 391 141 L 377 131 L 360 125 L 338 124 Z" fill="#FFFFFF" />
  <path d="M 182 127 L 173 124 L 147 126 L 134 131 L 119 142 L 109 156 L 103 173 L 102 195 L 105 204 L 109 208 L 118 211 L 127 208 L 131 204 L 134 195 L 134 178 L 136 172 L 145 161 L 156 156 L 178 155 L 186 149 L 189 140 L 186 131 Z" fill="#FFFFFF" />
</svg>